<mxfile host="app.diagrams.net" modified="2022-05-19T13:18:59.731Z" agent="5.0 (X11)" etag="DF27N6qQiuEebpTGlKdG" version="18.0.6" type="github">
  <diagram id="BKyIBWXtHGFlfNe0NvQe" name="Page-1">
    <mxGraphModel dx="2966" dy="895" grid="1" gridSize="10" guides="1" tooltips="1" connect="1" arrows="1" fold="1" page="1" pageScale="1" pageWidth="1200" pageHeight="1920" math="0" shadow="0">
      <root>
        <mxCell id="0" />
        <mxCell id="1" parent="0" />
        <mxCell id="8CGCrLb8g6kRV5iT2Z4M-1" value="&lt;span id=&quot;page83R_mcid0&quot; class=&quot;markedContent&quot;&gt;&lt;span dir=&quot;ltr&quot; role=&quot;presentation&quot; style=&quot;left: 432.062px; top: 975.071px; font-size: 17.2154px; font-family: monospace; transform: scaleX(0.999713);&quot;&gt;gg&lt;/span&gt;&lt;span dir=&quot;ltr&quot; role=&quot;presentation&quot; style=&quot;left: 452.79px; top: 975.071px; font-size: 17.2154px; font-family: monospace;&quot;&gt; &lt;/span&gt;&lt;span dir=&quot;ltr&quot; role=&quot;presentation&quot; style=&quot;left: 582.403px; top: 971.772px; font-size: 21.5191px; font-family: sans-serif; transform: scaleX(1.00714);&quot;&gt;Go to the top of the file&lt;/span&gt;&lt;br role=&quot;presentation&quot;&gt;&lt;span dir=&quot;ltr&quot; role=&quot;presentation&quot; style=&quot;left: 432.062px; top: 1005.2px; font-size: 17.2154px; font-family: monospace;&quot;&gt;G&lt;/span&gt;&lt;span dir=&quot;ltr&quot; role=&quot;presentation&quot; style=&quot;left: 442.426px; top: 1005.2px; font-size: 17.2154px; font-family: monospace;&quot;&gt; &lt;/span&gt;&lt;span dir=&quot;ltr&quot; role=&quot;presentation&quot; style=&quot;left: 582.403px; top: 1001.9px; font-size: 21.5191px; font-family: sans-serif; transform: scaleX(1.0042);&quot;&gt;Go to the bottom of the file&lt;/span&gt;&lt;br role=&quot;presentation&quot;&gt;&lt;span dir=&quot;ltr&quot; role=&quot;presentation&quot; style=&quot;left: 432.062px; top: 1035.33px; font-size: 17.2154px; font-family: monospace;&quot;&gt;{&lt;/span&gt;&lt;span dir=&quot;ltr&quot; role=&quot;presentation&quot; style=&quot;left: 442.426px; top: 1035.33px; font-size: 17.2154px; font-family: monospace;&quot;&gt; &lt;/span&gt;&lt;span dir=&quot;ltr&quot; role=&quot;presentation&quot; style=&quot;left: 582.403px; top: 1032.03px; font-size: 21.5191px; font-family: sans-serif; transform: scaleX(1.02109);&quot;&gt;Go to the beginning of current paragraph&lt;/span&gt;&lt;br role=&quot;presentation&quot;&gt;&lt;span dir=&quot;ltr&quot; role=&quot;presentation&quot; style=&quot;left: 432.062px; top: 1065.45px; font-size: 17.2154px; font-family: monospace;&quot;&gt;}&lt;/span&gt;&lt;span dir=&quot;ltr&quot; role=&quot;presentation&quot; style=&quot;left: 442.426px; top: 1065.45px; font-size: 17.2154px; font-family: monospace;&quot;&gt; &lt;/span&gt;&lt;span dir=&quot;ltr&quot; role=&quot;presentation&quot; style=&quot;left: 582.403px; top: 1062.15px; font-size: 21.5191px; font-family: sans-serif; transform: scaleX(1.01819);&quot;&gt;Go to the end of current paragraph&lt;/span&gt;&lt;br role=&quot;presentation&quot;&gt;&lt;span dir=&quot;ltr&quot; role=&quot;presentation&quot; style=&quot;left: 432.062px; top: 1095.58px; font-size: 17.2154px; font-family: monospace;&quot;&gt;%&lt;/span&gt;&lt;span dir=&quot;ltr&quot; role=&quot;presentation&quot; style=&quot;left: 442.426px; top: 1095.58px; font-size: 17.2154px; font-family: monospace;&quot;&gt; &lt;/span&gt;&lt;span dir=&quot;ltr&quot; role=&quot;presentation&quot; style=&quot;left: 582.403px; top: 1092.28px; font-size: 21.5191px; font-family: sans-serif; transform: scaleX(1.00951);&quot;&gt;Go to the matching pair of (), [], {}&lt;/span&gt;&lt;br role=&quot;presentation&quot;&gt;&lt;span dir=&quot;ltr&quot; role=&quot;presentation&quot; style=&quot;left: 432.062px; top: 1155.83px; font-size: 17.2154px; font-family: monospace; transform: scaleX(0.999713);&quot;&gt;:NUM&lt;/span&gt;&lt;span dir=&quot;ltr&quot; role=&quot;presentation&quot; style=&quot;left: 473.517px; top: 1155.83px; font-size: 17.2154px; font-family: monospace;&quot;&gt; &lt;/span&gt;&lt;span dir=&quot;ltr&quot; role=&quot;presentation&quot; style=&quot;left: 582.403px; top: 1152.53px; font-size: 21.5191px; font-family: sans-serif; transform: scaleX(1.0624);&quot;&gt;Go to line NUM.&lt;/span&gt;&lt;span dir=&quot;ltr&quot; role=&quot;presentation&quot; style=&quot;left: 760.904px; top: 1152.53px; font-size: 21.5191px; font-family: sans-serif;&quot;&gt; &lt;/span&gt;&lt;span dir=&quot;ltr&quot; role=&quot;presentation&quot; style=&quot;left: 767.748px; top: 1155.83px; font-size: 17.2154px; font-family: monospace; transform: scaleX(0.999713);&quot;&gt;:28&lt;/span&gt;&lt;span dir=&quot;ltr&quot; role=&quot;presentation&quot; style=&quot;left: 798.839px; top: 1155.83px; font-size: 17.2154px; font-family: monospace;&quot;&gt; &lt;/span&gt;&lt;span dir=&quot;ltr&quot; role=&quot;presentation&quot; style=&quot;left: 805.682px; top: 1152.53px; font-size: 21.5191px; font-family: sans-serif; transform: scaleX(1.01075);&quot;&gt;jumps to line 28&lt;/span&gt;&lt;/span&gt;&lt;div style=&quot;font-size: 20px;&quot;&gt;&lt;font style=&quot;font-size: 20px;&quot;&gt;&lt;span id=&quot;page80R_mcid0&quot; class=&quot;markedContent&quot;&gt;&lt;span dir=&quot;ltr&quot; role=&quot;presentation&quot; style=&quot;left: 501.065px; top: 930.726px;&quot;&gt;w&lt;/span&gt;&lt;span dir=&quot;ltr&quot; role=&quot;presentation&quot; style=&quot;left: 511.429px; top: 930.726px;&quot;&gt; - &lt;/span&gt;&lt;span dir=&quot;ltr&quot; role=&quot;presentation&quot; style=&quot;left: 574.171px; top: 927.427px; transform: scaleX(1.00537);&quot;&gt;Go to the start of the next&lt;/span&gt;&lt;span dir=&quot;ltr&quot; role=&quot;presentation&quot; style=&quot;left: 857.234px; top: 927.427px;&quot;&gt; &lt;/span&gt;&lt;span dir=&quot;ltr&quot; role=&quot;presentation&quot; style=&quot;left: 864.077px; top: 927.427px;&quot;&gt;w&lt;/span&gt;&lt;span dir=&quot;ltr&quot; role=&quot;presentation&quot; style=&quot;left: 882.605px; top: 927.427px; transform: scaleX(1.04902);&quot;&gt;ord&lt;/span&gt;&lt;br role=&quot;presentation&quot;&gt;&lt;span dir=&quot;ltr&quot; role=&quot;presentation&quot; style=&quot;left: 501.065px; top: 960.854px;&quot;&gt;W&lt;/span&gt;&lt;span dir=&quot;ltr&quot; role=&quot;presentation&quot; style=&quot;left: 511.429px; top: 960.854px;&quot;&gt; - &lt;/span&gt;&lt;span dir=&quot;ltr&quot; role=&quot;presentation&quot; style=&quot;left: 574.171px; top: 957.554px; transform: scaleX(1.00537);&quot;&gt;Go to the start of the next&lt;/span&gt;&lt;span dir=&quot;ltr&quot; role=&quot;presentation&quot; style=&quot;left: 857.234px; top: 957.554px;&quot;&gt; &lt;/span&gt;&lt;span dir=&quot;ltr&quot; role=&quot;presentation&quot; style=&quot;left: 864.077px; top: 957.554px;&quot;&gt;W&lt;/span&gt;&lt;span dir=&quot;ltr&quot; role=&quot;presentation&quot; style=&quot;left: 888.245px; top: 957.554px; transform: scaleX(1.05486);&quot;&gt;ORD&lt;/span&gt;&lt;br role=&quot;presentation&quot;&gt;&lt;span dir=&quot;ltr&quot; role=&quot;presentation&quot; style=&quot;left: 501.065px; top: 990.981px;&quot;&gt;e&lt;/span&gt;&lt;span dir=&quot;ltr&quot; role=&quot;presentation&quot; style=&quot;left: 511.429px; top: 990.981px;&quot;&gt; &lt;/span&gt;&lt;span dir=&quot;ltr&quot; role=&quot;presentation&quot; style=&quot;left: 574.171px; top: 987.681px; transform: scaleX(1.00287);&quot;&gt;- Go to the&lt;/span&gt;&lt;span dir=&quot;ltr&quot; role=&quot;presentation&quot; style=&quot;left: 674.859px; top: 987.681px;&quot;&gt; &lt;/span&gt;&lt;span dir=&quot;ltr&quot; role=&quot;presentation&quot; style=&quot;left: 681.703px; top: 987.681px;&quot;&gt;e&lt;/span&gt;&lt;span dir=&quot;ltr&quot; role=&quot;presentation&quot; style=&quot;left: 695.39px; top: 987.681px; transform: scaleX(1.02556);&quot;&gt;nd of the current&lt;/span&gt;&lt;span dir=&quot;ltr&quot; role=&quot;presentation&quot; style=&quot;left: 881.445px; top: 987.681px;&quot;&gt; &lt;/span&gt;&lt;span dir=&quot;ltr&quot; role=&quot;presentation&quot; style=&quot;left: 888.288px; top: 987.681px; transform: scaleX(1.12065);&quot;&gt;word&lt;/span&gt;&lt;br role=&quot;presentation&quot;&gt;&lt;span dir=&quot;ltr&quot; role=&quot;presentation&quot; style=&quot;left: 501.065px; top: 1021.11px;&quot;&gt;E&lt;/span&gt;&lt;span dir=&quot;ltr&quot; role=&quot;presentation&quot; style=&quot;left: 511.429px; top: 1021.11px;&quot;&gt; - &lt;/span&gt;&lt;span dir=&quot;ltr&quot; role=&quot;presentation&quot; style=&quot;left: 574.171px; top: 1017.81px; transform: scaleX(1.00287);&quot;&gt;Go to the&lt;/span&gt;&lt;span dir=&quot;ltr&quot; role=&quot;presentation&quot; style=&quot;left: 674.859px; top: 1017.81px;&quot;&gt; &lt;/span&gt;&lt;span dir=&quot;ltr&quot; role=&quot;presentation&quot; style=&quot;left: 681.703px; top: 1017.81px;&quot;&gt;e&lt;/span&gt;&lt;span dir=&quot;ltr&quot; role=&quot;presentation&quot; style=&quot;left: 695.39px; top: 1017.81px; transform: scaleX(1.02556);&quot;&gt;nd of the current&lt;/span&gt;&lt;span dir=&quot;ltr&quot; role=&quot;presentation&quot; style=&quot;left: 881.445px; top: 1017.81px;&quot;&gt; &lt;/span&gt;&lt;span dir=&quot;ltr&quot; role=&quot;presentation&quot; style=&quot;left: 888.288px; top: 1017.81px; transform: scaleX(1.13959);&quot;&gt;WORD&lt;/span&gt;&lt;br role=&quot;presentation&quot;&gt;&lt;span dir=&quot;ltr&quot; role=&quot;presentation&quot; style=&quot;left: 501.065px; top: 1051.24px;&quot;&gt;b&lt;/span&gt;&lt;span dir=&quot;ltr&quot; role=&quot;presentation&quot; style=&quot;left: 511.429px; top: 1051.24px;&quot;&gt; - &lt;/span&gt;&lt;span dir=&quot;ltr&quot; role=&quot;presentation&quot; style=&quot;left: 574.171px; top: 1047.94px; transform: scaleX(1.00938);&quot;&gt;Go to the previous (&lt;/span&gt;&lt;span dir=&quot;ltr&quot; role=&quot;presentation&quot; style=&quot;left: 790.632px; top: 1047.94px;&quot;&gt;b&lt;/span&gt;&lt;span dir=&quot;ltr&quot; role=&quot;presentation&quot; style=&quot;left: 805.675px; top: 1047.94px; transform: scaleX(1.01731);&quot;&gt;efore)&lt;/span&gt;&lt;span dir=&quot;ltr&quot; role=&quot;presentation&quot; style=&quot;left: 870.749px; top: 1047.94px;&quot;&gt; &lt;/span&gt;&lt;span dir=&quot;ltr&quot; role=&quot;presentation&quot; style=&quot;left: 877.591px; top: 1047.94px; transform: scaleX(1.12065);&quot;&gt;word&lt;/span&gt;&lt;br role=&quot;presentation&quot;&gt;&lt;span dir=&quot;ltr&quot; role=&quot;presentation&quot; style=&quot;left: 501.065px; top: 1081.36px;&quot;&gt;B&lt;/span&gt;&lt;span dir=&quot;ltr&quot; role=&quot;presentation&quot; style=&quot;left: 511.429px; top: 1081.36px;&quot;&gt; - &lt;/span&gt;&lt;span dir=&quot;ltr&quot; role=&quot;presentation&quot; style=&quot;left: 574.171px; top: 1078.06px; transform: scaleX(1.00938);&quot;&gt;Go to the previous (&lt;/span&gt;&lt;span dir=&quot;ltr&quot; role=&quot;presentation&quot; style=&quot;left: 790.632px; top: 1078.06px;&quot;&gt;b&lt;/span&gt;&lt;span dir=&quot;ltr&quot; role=&quot;presentation&quot; style=&quot;left: 805.675px; top: 1078.06px; transform: scaleX(1.01731);&quot;&gt;efore)&lt;/span&gt;&lt;span dir=&quot;ltr&quot; role=&quot;presentation&quot; style=&quot;left: 870.749px; top: 1078.06px;&quot;&gt; &lt;/span&gt;&lt;span dir=&quot;ltr&quot; role=&quot;presentation&quot; style=&quot;left: 877.591px; top: 1078.06px; transform: scaleX(1.13959);&quot;&gt;WORD&lt;/span&gt;&lt;/span&gt;&lt;/font&gt;&lt;/div&gt;&lt;div style=&quot;font-size: 20px;&quot;&gt;&lt;span id=&quot;page83R_mcid0&quot; class=&quot;markedContent&quot;&gt;&lt;span dir=&quot;ltr&quot; role=&quot;presentation&quot; style=&quot;left: 406.918px; top: 1451.77px; font-size: 17.2154px; font-family: monospace;&quot;&gt;H&lt;/span&gt;&lt;span dir=&quot;ltr&quot; role=&quot;presentation&quot; style=&quot;left: 417.281px; top: 1451.77px; font-size: 17.2154px; font-family: monospace;&quot;&gt; &lt;/span&gt;&lt;span dir=&quot;ltr&quot; role=&quot;presentation&quot; style=&quot;left: 480.026px; top: 1448.47px; font-size: 21.5191px; font-family: sans-serif; transform: scaleX(1.03307);&quot;&gt;Move cursor to first (&lt;/span&gt;&lt;span dir=&quot;ltr&quot; role=&quot;presentation&quot; style=&quot;left: 712.087px; top: 1448.47px; font-size: 21.5191px; font-family: sans-serif;&quot;&gt;h&lt;/span&gt;&lt;span dir=&quot;ltr&quot; role=&quot;presentation&quot; style=&quot;left: 727.733px; top: 1448.47px; font-size: 21.5191px; font-family: sans-serif; transform: scaleX(1.03);&quot;&gt;ighest) line in current window.&lt;/span&gt;&lt;br role=&quot;presentation&quot;&gt;&lt;span dir=&quot;ltr&quot; role=&quot;presentation&quot; style=&quot;left: 406.918px; top: 1481.9px; font-size: 17.2154px; font-family: monospace;&quot;&gt;L&lt;/span&gt;&lt;span dir=&quot;ltr&quot; role=&quot;presentation&quot; style=&quot;left: 417.281px; top: 1481.9px; font-size: 17.2154px; font-family: monospace;&quot;&gt; &lt;/span&gt;&lt;span dir=&quot;ltr&quot; role=&quot;presentation&quot; style=&quot;left: 480.026px; top: 1478.6px; font-size: 21.5191px; font-family: sans-serif; transform: scaleX(1.02514);&quot;&gt;Move cursor to the&lt;/span&gt;&lt;span dir=&quot;ltr&quot; role=&quot;presentation&quot; style=&quot;left: 687.772px; top: 1478.6px; font-size: 21.5191px; font-family: sans-serif;&quot;&gt; &lt;/span&gt;&lt;span dir=&quot;ltr&quot; role=&quot;presentation&quot; style=&quot;left: 694.615px; top: 1478.6px; font-size: 21.5191px; font-family: sans-serif;&quot;&gt;l&lt;/span&gt;&lt;span dir=&quot;ltr&quot; role=&quot;presentation&quot; style=&quot;left: 702.792px; top: 1478.6px; font-size: 21.5191px; font-family: sans-serif; transform: scaleX(1.02902);&quot;&gt;owest line in current window.&lt;/span&gt;&lt;br role=&quot;presentation&quot;&gt;&lt;span dir=&quot;ltr&quot; role=&quot;presentation&quot; style=&quot;left: 406.918px; top: 1512.03px; font-size: 17.2154px; font-family: monospace;&quot;&gt;M&lt;/span&gt;&lt;span dir=&quot;ltr&quot; role=&quot;presentation&quot; style=&quot;left: 417.281px; top: 1512.03px; font-size: 17.2154px; font-family: monospace;&quot;&gt; &lt;/span&gt;&lt;span dir=&quot;ltr&quot; role=&quot;presentation&quot; style=&quot;left: 480.026px; top: 1508.73px; font-size: 21.5191px; font-family: sans-serif; transform: scaleX(1.02514);&quot;&gt;Move cursor to the&lt;/span&gt;&lt;span dir=&quot;ltr&quot; role=&quot;presentation&quot; style=&quot;left: 687.772px; top: 1508.73px; font-size: 21.5191px; font-family: sans-serif;&quot;&gt; &lt;/span&gt;&lt;span dir=&quot;ltr&quot; role=&quot;presentation&quot; style=&quot;left: 694.615px; top: 1508.73px; font-size: 21.5191px; font-family: sans-serif;&quot;&gt;m&lt;/span&gt;&lt;span dir=&quot;ltr&quot; role=&quot;presentation&quot; style=&quot;left: 717.382px; top: 1508.73px; font-size: 21.5191px; font-family: sans-serif; transform: scaleX(1.02656);&quot;&gt;iddle of the current window.&lt;/span&gt;&lt;/span&gt;&lt;font style=&quot;font-size: 20px;&quot;&gt;&lt;span id=&quot;page80R_mcid0&quot; class=&quot;markedContent&quot;&gt;&lt;span dir=&quot;ltr&quot; role=&quot;presentation&quot; style=&quot;left: 877.591px; top: 1078.06px; transform: scaleX(1.13959);&quot;&gt;&lt;/span&gt;&lt;/span&gt;&lt;/font&gt;&lt;/div&gt;&lt;div&gt;&lt;span id=&quot;page80R_mcid0&quot; class=&quot;markedContent&quot;&gt;&lt;span dir=&quot;ltr&quot; role=&quot;presentation&quot; style=&quot;left: 501.065px; top: 930.726px; font-size: 17.2154px; font-family: monospace;&quot;&gt;&lt;/span&gt;&lt;span dir=&quot;ltr&quot; role=&quot;presentation&quot; style=&quot;left: 877.591px; top: 1078.06px; font-size: 21.5191px; font-family: sans-serif; transform: scaleX(1.13959);&quot;&gt;&lt;/span&gt;&lt;/span&gt;&lt;/div&gt;" style="text;html=1;strokeColor=none;fillColor=none;align=left;verticalAlign=top;whiteSpace=wrap;rounded=0;" vertex="1" parent="1">
          <mxGeometry x="-400" y="40" width="960" height="600" as="geometry" />
        </mxCell>
        <mxCell id="8CGCrLb8g6kRV5iT2Z4M-2" value="&lt;div style=&quot;font-size: 20px;&quot;&gt;&lt;span id=&quot;page83R_mcid0&quot; class=&quot;markedContent&quot;&gt;&lt;span dir=&quot;ltr&quot; role=&quot;presentation&quot; style=&quot;left: 404.057px; top: 554.138px; font-size: 17.2154px; font-family: monospace; transform: scaleX(0.999713);&quot;&gt;Ctrl-d&lt;/span&gt;&lt;span dir=&quot;ltr&quot; role=&quot;presentation&quot; style=&quot;left: 466.239px; top: 554.138px; font-size: 17.2154px; font-family: monospace;&quot;&gt; &lt;/span&gt;&lt;span dir=&quot;ltr&quot; role=&quot;presentation&quot; style=&quot;left: 538.258px; top: 550.838px; font-size: 21.5191px; font-family: sans-serif; transform: scaleX(1.08173);&quot;&gt;Scroll&lt;/span&gt;&lt;span dir=&quot;ltr&quot; role=&quot;presentation&quot; style=&quot;left: 602.062px; top: 550.838px; font-size: 21.5191px; font-family: sans-serif;&quot;&gt; &lt;/span&gt;&lt;span dir=&quot;ltr&quot; role=&quot;presentation&quot; style=&quot;left: 608.904px; top: 550.838px; font-size: 21.5191px; font-family: sans-serif;&quot;&gt;d&lt;/span&gt;&lt;span dir=&quot;ltr&quot; role=&quot;presentation&quot; style=&quot;left: 623.947px; top: 550.838px; font-size: 21.5191px; font-family: sans-serif; transform: scaleX(1.00927);&quot;&gt;own half page&lt;/span&gt;&lt;br role=&quot;presentation&quot;&gt;&lt;span dir=&quot;ltr&quot; role=&quot;presentation&quot; style=&quot;left: 404.057px; top: 584.265px; font-size: 17.2154px; font-family: monospace; transform: scaleX(0.999713);&quot;&gt;Ctrl-u&lt;/span&gt;&lt;span dir=&quot;ltr&quot; role=&quot;presentation&quot; style=&quot;left: 466.239px; top: 584.265px; font-size: 17.2154px; font-family: monospace;&quot;&gt; &lt;/span&gt;&lt;span dir=&quot;ltr&quot; role=&quot;presentation&quot; style=&quot;left: 538.258px; top: 580.965px; font-size: 21.5191px; font-family: sans-serif; transform: scaleX(1.08173);&quot;&gt;Scroll&lt;/span&gt;&lt;span dir=&quot;ltr&quot; role=&quot;presentation&quot; style=&quot;left: 602.062px; top: 580.965px; font-size: 21.5191px; font-family: sans-serif;&quot;&gt; &lt;/span&gt;&lt;span dir=&quot;ltr&quot; role=&quot;presentation&quot; style=&quot;left: 608.904px; top: 580.965px; font-size: 21.5191px; font-family: sans-serif;&quot;&gt;u&lt;/span&gt;&lt;span dir=&quot;ltr&quot; role=&quot;presentation&quot; style=&quot;left: 624.55px; top: 580.965px; font-size: 21.5191px; font-family: sans-serif; transform: scaleX(1.00576);&quot;&gt;p half page&lt;/span&gt;&lt;br role=&quot;presentation&quot;&gt;&lt;span dir=&quot;ltr&quot; role=&quot;presentation&quot; style=&quot;left: 404.057px; top: 614.392px; font-size: 17.2154px; font-family: monospace; transform: scaleX(0.999713);&quot;&gt;Ctrl-f&lt;/span&gt;&lt;span dir=&quot;ltr&quot; role=&quot;presentation&quot; style=&quot;left: 466.239px; top: 614.392px; font-size: 17.2154px; font-family: monospace;&quot;&gt; &lt;/span&gt;&lt;span dir=&quot;ltr&quot; role=&quot;presentation&quot; style=&quot;left: 538.258px; top: 611.092px; font-size: 21.5191px; font-family: sans-serif; transform: scaleX(1.04671);&quot;&gt;Scroll down&lt;/span&gt;&lt;span dir=&quot;ltr&quot; role=&quot;presentation&quot; style=&quot;left: 667.91px; top: 611.092px; font-size: 21.5191px; font-family: sans-serif;&quot;&gt; &lt;/span&gt;&lt;span dir=&quot;ltr&quot; role=&quot;presentation&quot; style=&quot;left: 674.753px; top: 611.092px; font-size: 21.5191px; font-family: sans-serif;&quot;&gt;f&lt;/span&gt;&lt;span dir=&quot;ltr&quot; role=&quot;presentation&quot; style=&quot;left: 684.005px; top: 611.092px; font-size: 21.5191px; font-family: sans-serif; transform: scaleX(1.02155);&quot;&gt;ull page (or&lt;/span&gt;&lt;span dir=&quot;ltr&quot; role=&quot;presentation&quot; style=&quot;left: 810.064px; top: 611.092px; font-size: 21.5191px; font-family: sans-serif;&quot;&gt; &lt;/span&gt;&lt;span dir=&quot;ltr&quot; role=&quot;presentation&quot; style=&quot;left: 816.907px; top: 611.092px; font-size: 21.5191px; font-family: sans-serif;&quot;&gt;f&lt;/span&gt;&lt;span dir=&quot;ltr&quot; role=&quot;presentation&quot; style=&quot;left: 826.162px; top: 611.092px; font-size: 21.5191px; font-family: sans-serif; transform: scaleX(1.03642);&quot;&gt;orwards)&lt;/span&gt;&lt;br role=&quot;presentation&quot;&gt;&lt;span dir=&quot;ltr&quot; role=&quot;presentation&quot; style=&quot;left: 404.057px; top: 644.519px; font-size: 17.2154px; font-family: monospace; transform: scaleX(0.999713);&quot;&gt;Ctrl-b&lt;/span&gt;&lt;span dir=&quot;ltr&quot; role=&quot;presentation&quot; style=&quot;left: 466.239px; top: 644.519px; font-size: 17.2154px; font-family: monospace;&quot;&gt; &lt;/span&gt;&lt;span dir=&quot;ltr&quot; role=&quot;presentation&quot; style=&quot;left: 538.258px; top: 641.22px; font-size: 21.5191px; font-family: sans-serif; transform: scaleX(1.03047);&quot;&gt;Scroll up full page (to&lt;/span&gt;&lt;span dir=&quot;ltr&quot; role=&quot;presentation&quot; style=&quot;left: 775.764px; top: 641.22px; font-size: 21.5191px; font-family: sans-serif;&quot;&gt; &lt;/span&gt;&lt;span dir=&quot;ltr&quot; role=&quot;presentation&quot; style=&quot;left: 782.606px; top: 641.22px; font-size: 21.5191px; font-family: sans-serif;&quot;&gt;b&lt;/span&gt;&lt;span dir=&quot;ltr&quot; role=&quot;presentation&quot; style=&quot;left: 797.65px; top: 641.22px; font-size: 21.5191px; font-family: sans-serif; transform: scaleX(1.02692);&quot;&gt;eginning, or&lt;/span&gt;&lt;span dir=&quot;ltr&quot; role=&quot;presentation&quot; style=&quot;left: 930.207px; top: 641.22px; font-size: 21.5191px; font-family: sans-serif;&quot;&gt; &lt;/span&gt;&lt;span dir=&quot;ltr&quot; role=&quot;presentation&quot; style=&quot;left: 937.049px; top: 641.22px; font-size: 21.5191px; font-family: sans-serif;&quot;&gt;b&lt;/span&gt;&lt;span dir=&quot;ltr&quot; role=&quot;presentation&quot; style=&quot;left: 952.092px; top: 641.22px; font-size: 21.5191px; font-family: sans-serif; transform: scaleX(1.02411);&quot;&gt;ackwards)&lt;/span&gt;&lt;/span&gt;&lt;/div&gt;" style="text;html=1;strokeColor=none;fillColor=none;align=left;verticalAlign=top;whiteSpace=wrap;rounded=0;fontFamily=Helvetica;fontSize=20;" vertex="1" parent="1">
          <mxGeometry x="-950" y="50" width="480" height="620" as="geometry" />
        </mxCell>
        <mxCell id="8CGCrLb8g6kRV5iT2Z4M-3" value="&lt;div&gt;&lt;b&gt;Search:&lt;/b&gt;&lt;/div&gt;&lt;div&gt;type /foo&amp;lt;ENTER&amp;gt;&lt;/div&gt;&lt;div&gt;n - next&lt;/div&gt;&lt;div&gt;N - back&lt;/div&gt;&lt;div&gt;&lt;br&gt;&lt;/div&gt;&lt;div&gt;Search Word under Cursor: &lt;br&gt;&lt;/div&gt;&lt;div&gt;* - forward search exact Word&lt;/div&gt;&lt;div&gt;# - backwards search exact Word&lt;/div&gt;&lt;div&gt;g* - forward search not exact Word&lt;/div&gt;&lt;div&gt;g# - backwards search not exact Word&lt;br&gt;&lt;/div&gt;" style="text;html=1;strokeColor=none;fillColor=none;align=left;verticalAlign=top;whiteSpace=wrap;rounded=0;fontFamily=Helvetica;fontSize=20;" vertex="1" parent="1">
          <mxGeometry x="320" y="40" width="690" height="300" as="geometry" />
        </mxCell>
      </root>
    </mxGraphModel>
  </diagram>
</mxfile>
